<?xml version="1.0" encoding="UTF-8" standalone="no"?>
<svg
   id="Download_Solid"
   viewBox="0 0 200 200"
   version="1.1"
   sodipodi:docname="download.svg"
   width="200"
   height="200"
   inkscape:version="1.4.2 (ebf0e940d0, 2025-05-08)"
   xmlns:inkscape="http://www.inkscape.org/namespaces/inkscape"
   xmlns:sodipodi="http://sodipodi.sourceforge.net/DTD/sodipodi-0.dtd"
   xmlns="http://www.w3.org/2000/svg"
   xmlns:svg="http://www.w3.org/2000/svg">
  <defs
     id="defs1" />
  <sodipodi:namedview
     id="namedview1"
     pagecolor="#505050"
     bordercolor="#eeeeee"
     borderopacity="1"
     inkscape:showpageshadow="0"
     inkscape:pageopacity="0"
     inkscape:pagecheckerboard="0"
     inkscape:deskcolor="#505050"
     inkscape:zoom="2.1452589"
     inkscape:cx="-72.951569"
     inkscape:cy="176.90173"
     inkscape:window-width="2536"
     inkscape:window-height="1386"
     inkscape:window-x="0"
     inkscape:window-y="0"
     inkscape:window-maximized="1"
     inkscape:current-layer="Download_Solid" />
  <path
     style="fill:#ffffff;stroke-width:0"
     d="M 10,200 V 190 H 0 v -50 h 10 v -10 h 40 v 10 h 10 v 10 h 10 v 10 h 10 v 10 h 40 v -10 h 10 v -10 h 10 v -10 h 10 v -10 h 40 v 10 h 10 v 50 h -10 v 10 z m 170,-30 h -10 v 10 h 10 z m -20,0 h -10 v 10 h 10 z"
     id="path2"
     sodipodi:nodetypes="cccccccccccccccccccccccccccccccccc" />
  <path
     style="fill:#ffffff;stroke-width:0"
     d="m 90,160 h 20 v -10 h 10 v -10 h 9.99999 V 130 H 140 v -10 h 10 v -10 h 10 V 100 H 129.99999 V 10 H 120 V 0 H 80 V 10 H 70 v 90 H 40 v 10 h 10 v 10 h 10 v 10 h 10 v 10 h 10 v 10 h 10 z"
     id="path3"
     sodipodi:nodetypes="ccccccccccccccccccccccccccccccccc" />
</svg>
